<mxfile host="app.diagrams.net" modified="2023-08-26T15:32:30.686Z" agent="Mozilla/5.0 (Windows NT 10.0; Win64; x64) AppleWebKit/537.36 (KHTML, like Gecko) Chrome/111.0.0.0 Safari/537.36" etag="BK647lRexF9EU_QFpHVF" version="21.6.9" type="google">
  <diagram name="Page-1" id="Y9bjSH7V11J0CzjZqD5S">
    <mxGraphModel grid="1" page="1" gridSize="10" guides="1" tooltips="1" connect="1" arrows="1" fold="1" pageScale="1" pageWidth="827" pageHeight="1169" math="0" shadow="0">
      <root>
        <mxCell id="0" />
        <mxCell id="1" parent="0" />
        <mxCell id="DNgMOrr3nvqOhSayVLv--1" value="Korisnik" style="rounded=0;whiteSpace=wrap;html=1;" vertex="1" parent="1">
          <mxGeometry x="-330" y="280" width="120" height="60" as="geometry" />
        </mxCell>
        <mxCell id="DNgMOrr3nvqOhSayVLv--2" value="Korisnicko ime" style="ellipse;whiteSpace=wrap;html=1;" vertex="1" parent="1">
          <mxGeometry x="-440" y="280" width="73" height="40" as="geometry" />
        </mxCell>
        <mxCell id="DNgMOrr3nvqOhSayVLv--3" value="Lozinka" style="ellipse;whiteSpace=wrap;html=1;" vertex="1" parent="1">
          <mxGeometry x="-440" y="340" width="73" height="40" as="geometry" />
        </mxCell>
        <mxCell id="DNgMOrr3nvqOhSayVLv--4" value="Email" style="ellipse;whiteSpace=wrap;html=1;" vertex="1" parent="1">
          <mxGeometry x="-440" y="390" width="73" height="40" as="geometry" />
        </mxCell>
        <mxCell id="DNgMOrr3nvqOhSayVLv--5" value="Id" style="ellipse;whiteSpace=wrap;html=1;" vertex="1" parent="1">
          <mxGeometry x="-440" y="220" width="73" height="40" as="geometry" />
        </mxCell>
        <mxCell id="DNgMOrr3nvqOhSayVLv--6" value="" style="endArrow=classic;html=1;rounded=0;exitX=0;exitY=0.5;exitDx=0;exitDy=0;entryX=1;entryY=0.5;entryDx=0;entryDy=0;" edge="1" parent="1" source="DNgMOrr3nvqOhSayVLv--1" target="DNgMOrr3nvqOhSayVLv--5">
          <mxGeometry width="50" height="50" relative="1" as="geometry">
            <mxPoint x="50" y="330" as="sourcePoint" />
            <mxPoint x="100" y="280" as="targetPoint" />
          </mxGeometry>
        </mxCell>
        <mxCell id="DNgMOrr3nvqOhSayVLv--7" value="" style="endArrow=classic;html=1;rounded=0;exitX=0;exitY=0.5;exitDx=0;exitDy=0;entryX=1;entryY=0.5;entryDx=0;entryDy=0;" edge="1" parent="1" source="DNgMOrr3nvqOhSayVLv--1" target="DNgMOrr3nvqOhSayVLv--2">
          <mxGeometry width="50" height="50" relative="1" as="geometry">
            <mxPoint x="30" y="330" as="sourcePoint" />
            <mxPoint x="80" y="280" as="targetPoint" />
          </mxGeometry>
        </mxCell>
        <mxCell id="DNgMOrr3nvqOhSayVLv--8" value="" style="endArrow=classic;html=1;rounded=0;exitX=0;exitY=0.5;exitDx=0;exitDy=0;entryX=1;entryY=0.5;entryDx=0;entryDy=0;" edge="1" parent="1" source="DNgMOrr3nvqOhSayVLv--1" target="DNgMOrr3nvqOhSayVLv--3">
          <mxGeometry width="50" height="50" relative="1" as="geometry">
            <mxPoint x="30" y="330" as="sourcePoint" />
            <mxPoint x="80" y="280" as="targetPoint" />
          </mxGeometry>
        </mxCell>
        <mxCell id="DNgMOrr3nvqOhSayVLv--9" value="" style="endArrow=classic;html=1;rounded=0;exitX=0;exitY=0.5;exitDx=0;exitDy=0;entryX=1;entryY=0.5;entryDx=0;entryDy=0;" edge="1" parent="1" source="DNgMOrr3nvqOhSayVLv--1" target="DNgMOrr3nvqOhSayVLv--4">
          <mxGeometry width="50" height="50" relative="1" as="geometry">
            <mxPoint x="-100" y="330" as="sourcePoint" />
            <mxPoint x="-50" y="280" as="targetPoint" />
          </mxGeometry>
        </mxCell>
        <mxCell id="DNgMOrr3nvqOhSayVLv--10" value="Lista gledanja" style="rounded=0;whiteSpace=wrap;html=1;" vertex="1" parent="1">
          <mxGeometry x="-140" y="80" width="120" height="60" as="geometry" />
        </mxCell>
        <mxCell id="DNgMOrr3nvqOhSayVLv--11" value="Id" style="ellipse;whiteSpace=wrap;html=1;" vertex="1" parent="1">
          <mxGeometry x="-230" y="10" width="73" height="40" as="geometry" />
        </mxCell>
        <mxCell id="DNgMOrr3nvqOhSayVLv--12" value="Naziv" style="ellipse;whiteSpace=wrap;html=1;" vertex="1" parent="1">
          <mxGeometry x="-130" y="10" width="73" height="40" as="geometry" />
        </mxCell>
        <mxCell id="DNgMOrr3nvqOhSayVLv--13" value="Datum stvaranja" style="ellipse;whiteSpace=wrap;html=1;" vertex="1" parent="1">
          <mxGeometry x="-30" y="10" width="73" height="40" as="geometry" />
        </mxCell>
        <mxCell id="DNgMOrr3nvqOhSayVLv--14" value="" style="endArrow=classic;html=1;rounded=0;exitX=0.5;exitY=0;exitDx=0;exitDy=0;entryX=0.671;entryY=0.975;entryDx=0;entryDy=0;entryPerimeter=0;" edge="1" parent="1" source="DNgMOrr3nvqOhSayVLv--10" target="DNgMOrr3nvqOhSayVLv--11">
          <mxGeometry width="50" height="50" relative="1" as="geometry">
            <mxPoint x="-100" y="330" as="sourcePoint" />
            <mxPoint x="-50" y="280" as="targetPoint" />
          </mxGeometry>
        </mxCell>
        <mxCell id="DNgMOrr3nvqOhSayVLv--15" value="" style="endArrow=classic;html=1;rounded=0;entryX=0.548;entryY=1;entryDx=0;entryDy=0;entryPerimeter=0;" edge="1" parent="1" target="DNgMOrr3nvqOhSayVLv--12">
          <mxGeometry width="50" height="50" relative="1" as="geometry">
            <mxPoint x="-80" y="80" as="sourcePoint" />
            <mxPoint x="-50" y="280" as="targetPoint" />
          </mxGeometry>
        </mxCell>
        <mxCell id="DNgMOrr3nvqOhSayVLv--16" value="" style="endArrow=classic;html=1;rounded=0;exitX=0.5;exitY=0;exitDx=0;exitDy=0;entryX=0.375;entryY=1.055;entryDx=0;entryDy=0;entryPerimeter=0;" edge="1" parent="1" source="DNgMOrr3nvqOhSayVLv--10" target="DNgMOrr3nvqOhSayVLv--13">
          <mxGeometry width="50" height="50" relative="1" as="geometry">
            <mxPoint x="-100" y="330" as="sourcePoint" />
            <mxPoint x="-50" y="280" as="targetPoint" />
          </mxGeometry>
        </mxCell>
        <mxCell id="DNgMOrr3nvqOhSayVLv--17" value="Povijest gledanja" style="rounded=0;whiteSpace=wrap;html=1;" vertex="1" parent="1">
          <mxGeometry x="-330" y="580" width="120" height="60" as="geometry" />
        </mxCell>
        <mxCell id="DNgMOrr3nvqOhSayVLv--18" value="Id" style="ellipse;whiteSpace=wrap;html=1;" vertex="1" parent="1">
          <mxGeometry x="-413" y="690" width="73" height="40" as="geometry" />
        </mxCell>
        <mxCell id="DNgMOrr3nvqOhSayVLv--19" value="Sesija" style="ellipse;whiteSpace=wrap;html=1;" vertex="1" parent="1">
          <mxGeometry x="-320" y="690" width="73" height="40" as="geometry" />
        </mxCell>
        <mxCell id="DNgMOrr3nvqOhSayVLv--20" value="Vrijeme zaustavljanja" style="ellipse;whiteSpace=wrap;html=1;" vertex="1" parent="1">
          <mxGeometry x="-230" y="690" width="90" height="40" as="geometry" />
        </mxCell>
        <mxCell id="DNgMOrr3nvqOhSayVLv--21" value="" style="endArrow=classic;html=1;rounded=0;exitX=0.417;exitY=1;exitDx=0;exitDy=0;exitPerimeter=0;entryX=0.5;entryY=0;entryDx=0;entryDy=0;" edge="1" parent="1" source="DNgMOrr3nvqOhSayVLv--17" target="DNgMOrr3nvqOhSayVLv--18">
          <mxGeometry width="50" height="50" relative="1" as="geometry">
            <mxPoint x="-100" y="630" as="sourcePoint" />
            <mxPoint x="-50" y="580" as="targetPoint" />
          </mxGeometry>
        </mxCell>
        <mxCell id="DNgMOrr3nvqOhSayVLv--22" value="" style="endArrow=classic;html=1;rounded=0;entryX=0.5;entryY=0;entryDx=0;entryDy=0;" edge="1" parent="1" target="DNgMOrr3nvqOhSayVLv--19">
          <mxGeometry width="50" height="50" relative="1" as="geometry">
            <mxPoint x="-280" y="640" as="sourcePoint" />
            <mxPoint x="-50" y="580" as="targetPoint" />
          </mxGeometry>
        </mxCell>
        <mxCell id="DNgMOrr3nvqOhSayVLv--23" value="" style="endArrow=classic;html=1;rounded=0;exitX=0.428;exitY=1.03;exitDx=0;exitDy=0;exitPerimeter=0;entryX=0.5;entryY=0;entryDx=0;entryDy=0;" edge="1" parent="1" source="DNgMOrr3nvqOhSayVLv--17" target="DNgMOrr3nvqOhSayVLv--20">
          <mxGeometry width="50" height="50" relative="1" as="geometry">
            <mxPoint x="-100" y="630" as="sourcePoint" />
            <mxPoint x="-50" y="580" as="targetPoint" />
          </mxGeometry>
        </mxCell>
        <mxCell id="DNgMOrr3nvqOhSayVLv--24" value="Komentar" style="rounded=0;whiteSpace=wrap;html=1;" vertex="1" parent="1">
          <mxGeometry x="16" y="280" width="120" height="60" as="geometry" />
        </mxCell>
        <mxCell id="DNgMOrr3nvqOhSayVLv--25" value="Ocjena" style="rounded=0;whiteSpace=wrap;html=1;" vertex="1" parent="1">
          <mxGeometry y="520" width="120" height="60" as="geometry" />
        </mxCell>
        <mxCell id="DNgMOrr3nvqOhSayVLv--26" value="Id" style="ellipse;whiteSpace=wrap;html=1;" vertex="1" parent="1">
          <mxGeometry x="-30" y="610" width="73" height="40" as="geometry" />
        </mxCell>
        <mxCell id="DNgMOrr3nvqOhSayVLv--27" value="Ocjena" style="ellipse;whiteSpace=wrap;html=1;" vertex="1" parent="1">
          <mxGeometry x="70" y="610" width="73" height="40" as="geometry" />
        </mxCell>
        <mxCell id="DNgMOrr3nvqOhSayVLv--28" value="" style="endArrow=classic;html=1;rounded=0;exitX=0.5;exitY=1;exitDx=0;exitDy=0;entryX=0.5;entryY=0;entryDx=0;entryDy=0;" edge="1" parent="1" source="DNgMOrr3nvqOhSayVLv--25" target="DNgMOrr3nvqOhSayVLv--26">
          <mxGeometry width="50" height="50" relative="1" as="geometry">
            <mxPoint x="-110" y="520" as="sourcePoint" />
            <mxPoint x="-60" y="470" as="targetPoint" />
          </mxGeometry>
        </mxCell>
        <mxCell id="DNgMOrr3nvqOhSayVLv--29" value="" style="endArrow=classic;html=1;rounded=0;exitX=0.5;exitY=1;exitDx=0;exitDy=0;entryX=0.5;entryY=0;entryDx=0;entryDy=0;" edge="1" parent="1" source="DNgMOrr3nvqOhSayVLv--25" target="DNgMOrr3nvqOhSayVLv--27">
          <mxGeometry width="50" height="50" relative="1" as="geometry">
            <mxPoint x="-110" y="520" as="sourcePoint" />
            <mxPoint x="-60" y="470" as="targetPoint" />
          </mxGeometry>
        </mxCell>
        <mxCell id="DNgMOrr3nvqOhSayVLv--30" value="Id" style="ellipse;whiteSpace=wrap;html=1;" vertex="1" parent="1">
          <mxGeometry x="-57" y="210" width="73" height="40" as="geometry" />
        </mxCell>
        <mxCell id="DNgMOrr3nvqOhSayVLv--31" value="Tekst" style="ellipse;whiteSpace=wrap;html=1;" vertex="1" parent="1">
          <mxGeometry x="43" y="210" width="73" height="40" as="geometry" />
        </mxCell>
        <mxCell id="DNgMOrr3nvqOhSayVLv--32" value="Datum stvaranja" style="ellipse;whiteSpace=wrap;html=1;" vertex="1" parent="1">
          <mxGeometry x="143" y="210" width="73" height="40" as="geometry" />
        </mxCell>
        <mxCell id="DNgMOrr3nvqOhSayVLv--33" value="" style="endArrow=classic;html=1;rounded=0;exitX=0.5;exitY=0;exitDx=0;exitDy=0;entryX=0.5;entryY=1;entryDx=0;entryDy=0;" edge="1" parent="1" source="DNgMOrr3nvqOhSayVLv--24" target="DNgMOrr3nvqOhSayVLv--30">
          <mxGeometry width="50" height="50" relative="1" as="geometry">
            <mxPoint x="-110" y="420" as="sourcePoint" />
            <mxPoint x="-60" y="370" as="targetPoint" />
          </mxGeometry>
        </mxCell>
        <mxCell id="DNgMOrr3nvqOhSayVLv--34" value="" style="endArrow=classic;html=1;rounded=0;entryX=0.5;entryY=1;entryDx=0;entryDy=0;exitX=0.5;exitY=0;exitDx=0;exitDy=0;" edge="1" parent="1" source="DNgMOrr3nvqOhSayVLv--24" target="DNgMOrr3nvqOhSayVLv--31">
          <mxGeometry width="50" height="50" relative="1" as="geometry">
            <mxPoint x="70" y="320" as="sourcePoint" />
            <mxPoint x="-60" y="370" as="targetPoint" />
          </mxGeometry>
        </mxCell>
        <mxCell id="DNgMOrr3nvqOhSayVLv--35" value="" style="endArrow=classic;html=1;rounded=0;exitX=0.448;exitY=0.017;exitDx=0;exitDy=0;exitPerimeter=0;entryX=0.375;entryY=0.995;entryDx=0;entryDy=0;entryPerimeter=0;" edge="1" parent="1" source="DNgMOrr3nvqOhSayVLv--24" target="DNgMOrr3nvqOhSayVLv--32">
          <mxGeometry width="50" height="50" relative="1" as="geometry">
            <mxPoint x="-110" y="420" as="sourcePoint" />
            <mxPoint x="-60" y="370" as="targetPoint" />
          </mxGeometry>
        </mxCell>
        <mxCell id="DNgMOrr3nvqOhSayVLv--36" value="Film" style="rounded=0;whiteSpace=wrap;html=1;" vertex="1" parent="1">
          <mxGeometry x="420" y="240" width="120" height="60" as="geometry" />
        </mxCell>
        <mxCell id="DNgMOrr3nvqOhSayVLv--37" value="Serija" style="rounded=0;whiteSpace=wrap;html=1;" vertex="1" parent="1">
          <mxGeometry x="430" y="620" width="120" height="60" as="geometry" />
        </mxCell>
        <mxCell id="DNgMOrr3nvqOhSayVLv--38" value="Datum izlaska" style="ellipse;whiteSpace=wrap;html=1;" vertex="1" parent="1">
          <mxGeometry x="357" y="400" width="73" height="40" as="geometry" />
        </mxCell>
        <mxCell id="DNgMOrr3nvqOhSayVLv--39" value="Naziv" style="ellipse;whiteSpace=wrap;html=1;" vertex="1" parent="1">
          <mxGeometry x="320" y="180" width="73" height="40" as="geometry" />
        </mxCell>
        <mxCell id="DNgMOrr3nvqOhSayVLv--40" value="Id" style="ellipse;whiteSpace=wrap;html=1;" vertex="1" parent="1">
          <mxGeometry x="430" y="180" width="73" height="40" as="geometry" />
        </mxCell>
        <mxCell id="DNgMOrr3nvqOhSayVLv--41" value="Vrijeme trajanja" style="ellipse;whiteSpace=wrap;html=1;" vertex="1" parent="1">
          <mxGeometry x="443.5" y="400" width="73" height="40" as="geometry" />
        </mxCell>
        <mxCell id="DNgMOrr3nvqOhSayVLv--42" value="Datum dodavanja" style="ellipse;whiteSpace=wrap;html=1;" vertex="1" parent="1">
          <mxGeometry x="270" y="400" width="73" height="40" as="geometry" />
        </mxCell>
        <mxCell id="DNgMOrr3nvqOhSayVLv--43" value="O filmu" style="ellipse;whiteSpace=wrap;html=1;" vertex="1" parent="1">
          <mxGeometry x="540" y="180" width="73" height="40" as="geometry" />
        </mxCell>
        <mxCell id="DNgMOrr3nvqOhSayVLv--44" value="" style="endArrow=classic;html=1;rounded=0;exitX=0.5;exitY=1;exitDx=0;exitDy=0;entryX=0.5;entryY=0;entryDx=0;entryDy=0;" edge="1" parent="1" source="DNgMOrr3nvqOhSayVLv--36" target="DNgMOrr3nvqOhSayVLv--42">
          <mxGeometry width="50" height="50" relative="1" as="geometry">
            <mxPoint x="310" y="570" as="sourcePoint" />
            <mxPoint x="360" y="520" as="targetPoint" />
          </mxGeometry>
        </mxCell>
        <mxCell id="DNgMOrr3nvqOhSayVLv--45" value="" style="endArrow=classic;html=1;rounded=0;entryX=0.5;entryY=0;entryDx=0;entryDy=0;" edge="1" parent="1" target="DNgMOrr3nvqOhSayVLv--38">
          <mxGeometry width="50" height="50" relative="1" as="geometry">
            <mxPoint x="480" y="300" as="sourcePoint" />
            <mxPoint x="540" y="310" as="targetPoint" />
          </mxGeometry>
        </mxCell>
        <mxCell id="DNgMOrr3nvqOhSayVLv--47" value="" style="endArrow=classic;html=1;rounded=0;entryX=0.5;entryY=0;entryDx=0;entryDy=0;" edge="1" parent="1" target="DNgMOrr3nvqOhSayVLv--41">
          <mxGeometry width="50" height="50" relative="1" as="geometry">
            <mxPoint x="480" y="300" as="sourcePoint" />
            <mxPoint x="360" y="320" as="targetPoint" />
          </mxGeometry>
        </mxCell>
        <mxCell id="DNgMOrr3nvqOhSayVLv--48" value="" style="endArrow=classic;html=1;rounded=0;exitX=0.5;exitY=0;exitDx=0;exitDy=0;entryX=0.5;entryY=1;entryDx=0;entryDy=0;" edge="1" parent="1" source="DNgMOrr3nvqOhSayVLv--36" target="DNgMOrr3nvqOhSayVLv--39">
          <mxGeometry width="50" height="50" relative="1" as="geometry">
            <mxPoint x="310" y="470" as="sourcePoint" />
            <mxPoint x="360" y="420" as="targetPoint" />
          </mxGeometry>
        </mxCell>
        <mxCell id="DNgMOrr3nvqOhSayVLv--49" value="" style="endArrow=classic;html=1;rounded=0;entryX=0.616;entryY=0.965;entryDx=0;entryDy=0;entryPerimeter=0;" edge="1" parent="1" target="DNgMOrr3nvqOhSayVLv--40">
          <mxGeometry width="50" height="50" relative="1" as="geometry">
            <mxPoint x="470" y="240" as="sourcePoint" />
            <mxPoint x="360" y="420" as="targetPoint" />
          </mxGeometry>
        </mxCell>
        <mxCell id="DNgMOrr3nvqOhSayVLv--50" value="" style="endArrow=classic;html=1;rounded=0;entryX=0.5;entryY=1;entryDx=0;entryDy=0;" edge="1" parent="1" target="DNgMOrr3nvqOhSayVLv--43">
          <mxGeometry width="50" height="50" relative="1" as="geometry">
            <mxPoint x="470" y="240" as="sourcePoint" />
            <mxPoint x="360" y="420" as="targetPoint" />
          </mxGeometry>
        </mxCell>
        <mxCell id="DNgMOrr3nvqOhSayVLv--51" value="Id" style="ellipse;whiteSpace=wrap;html=1;" vertex="1" parent="1">
          <mxGeometry x="370" y="550" width="73" height="40" as="geometry" />
        </mxCell>
        <mxCell id="DNgMOrr3nvqOhSayVLv--52" value="Naziv" style="ellipse;whiteSpace=wrap;html=1;" vertex="1" parent="1">
          <mxGeometry x="467" y="550" width="73" height="40" as="geometry" />
        </mxCell>
        <mxCell id="DNgMOrr3nvqOhSayVLv--53" value="Godina proizvodnje" style="ellipse;whiteSpace=wrap;html=1;rotation=0;" vertex="1" parent="1">
          <mxGeometry x="394" y="750" width="73" height="40" as="geometry" />
        </mxCell>
        <mxCell id="DNgMOrr3nvqOhSayVLv--54" value="Datum dodavanja" style="ellipse;whiteSpace=wrap;html=1;" vertex="1" parent="1">
          <mxGeometry x="560" y="550" width="73" height="40" as="geometry" />
        </mxCell>
        <mxCell id="DNgMOrr3nvqOhSayVLv--55" value="O seriji" style="ellipse;whiteSpace=wrap;html=1;" vertex="1" parent="1">
          <mxGeometry x="310" y="740" width="73" height="40" as="geometry" />
        </mxCell>
        <mxCell id="DNgMOrr3nvqOhSayVLv--56" value="Broj sezona" style="ellipse;whiteSpace=wrap;html=1;" vertex="1" parent="1">
          <mxGeometry x="477" y="750" width="73" height="40" as="geometry" />
        </mxCell>
        <mxCell id="DNgMOrr3nvqOhSayVLv--57" value="" style="endArrow=classic;html=1;rounded=0;exitX=0.5;exitY=0;exitDx=0;exitDy=0;entryX=0.726;entryY=0.975;entryDx=0;entryDy=0;entryPerimeter=0;" edge="1" parent="1" source="DNgMOrr3nvqOhSayVLv--37" target="DNgMOrr3nvqOhSayVLv--51">
          <mxGeometry width="50" height="50" relative="1" as="geometry">
            <mxPoint x="310" y="570" as="sourcePoint" />
            <mxPoint x="360" y="520" as="targetPoint" />
          </mxGeometry>
        </mxCell>
        <mxCell id="DNgMOrr3nvqOhSayVLv--58" value="" style="endArrow=classic;html=1;rounded=0;entryX=0.5;entryY=1;entryDx=0;entryDy=0;" edge="1" parent="1" target="DNgMOrr3nvqOhSayVLv--52">
          <mxGeometry width="50" height="50" relative="1" as="geometry">
            <mxPoint x="490" y="620" as="sourcePoint" />
            <mxPoint x="360" y="520" as="targetPoint" />
          </mxGeometry>
        </mxCell>
        <mxCell id="DNgMOrr3nvqOhSayVLv--59" value="" style="endArrow=classic;html=1;rounded=0;exitX=0.5;exitY=0;exitDx=0;exitDy=0;entryX=0.414;entryY=1.015;entryDx=0;entryDy=0;entryPerimeter=0;" edge="1" parent="1" source="DNgMOrr3nvqOhSayVLv--37" target="DNgMOrr3nvqOhSayVLv--54">
          <mxGeometry width="50" height="50" relative="1" as="geometry">
            <mxPoint x="310" y="570" as="sourcePoint" />
            <mxPoint x="360" y="520" as="targetPoint" />
          </mxGeometry>
        </mxCell>
        <mxCell id="DNgMOrr3nvqOhSayVLv--61" value="" style="endArrow=classic;html=1;rounded=0;exitX=0.5;exitY=1;exitDx=0;exitDy=0;entryX=0.378;entryY=-0.035;entryDx=0;entryDy=0;entryPerimeter=0;" edge="1" parent="1" source="DNgMOrr3nvqOhSayVLv--37" target="DNgMOrr3nvqOhSayVLv--53">
          <mxGeometry width="50" height="50" relative="1" as="geometry">
            <mxPoint x="310" y="570" as="sourcePoint" />
            <mxPoint x="360" y="520" as="targetPoint" />
          </mxGeometry>
        </mxCell>
        <mxCell id="DNgMOrr3nvqOhSayVLv--62" value="" style="endArrow=classic;html=1;rounded=0;entryX=0.693;entryY=-0.015;entryDx=0;entryDy=0;entryPerimeter=0;" edge="1" parent="1" target="DNgMOrr3nvqOhSayVLv--55">
          <mxGeometry width="50" height="50" relative="1" as="geometry">
            <mxPoint x="490" y="680" as="sourcePoint" />
            <mxPoint x="360" y="520" as="targetPoint" />
          </mxGeometry>
        </mxCell>
        <mxCell id="DNgMOrr3nvqOhSayVLv--63" value="" style="endArrow=classic;html=1;rounded=0;exitX=0.5;exitY=1;exitDx=0;exitDy=0;entryX=0.5;entryY=0;entryDx=0;entryDy=0;" edge="1" parent="1" source="DNgMOrr3nvqOhSayVLv--37" target="DNgMOrr3nvqOhSayVLv--56">
          <mxGeometry width="50" height="50" relative="1" as="geometry">
            <mxPoint x="310" y="570" as="sourcePoint" />
            <mxPoint x="360" y="520" as="targetPoint" />
          </mxGeometry>
        </mxCell>
        <mxCell id="DNgMOrr3nvqOhSayVLv--64" value="Drzava" style="rounded=0;whiteSpace=wrap;html=1;" vertex="1" parent="1">
          <mxGeometry x="820" y="160" width="120" height="60" as="geometry" />
        </mxCell>
        <mxCell id="DNgMOrr3nvqOhSayVLv--65" value="Glumac" style="rounded=0;whiteSpace=wrap;html=1;" vertex="1" parent="1">
          <mxGeometry x="820" y="360" width="120" height="60" as="geometry" />
        </mxCell>
        <mxCell id="DNgMOrr3nvqOhSayVLv--66" value="Zanr" style="rounded=0;whiteSpace=wrap;html=1;" vertex="1" parent="1">
          <mxGeometry x="827" y="570" width="120" height="60" as="geometry" />
        </mxCell>
        <mxCell id="DNgMOrr3nvqOhSayVLv--67" value="Jezik" style="rounded=0;whiteSpace=wrap;html=1;" vertex="1" parent="1">
          <mxGeometry x="830" y="730" width="120" height="60" as="geometry" />
        </mxCell>
        <mxCell id="DNgMOrr3nvqOhSayVLv--68" value="Titl" style="rounded=0;whiteSpace=wrap;html=1;" vertex="1" parent="1">
          <mxGeometry x="590" y="900" width="130" height="60" as="geometry" />
        </mxCell>
        <mxCell id="DNgMOrr3nvqOhSayVLv--69" value="Id" style="ellipse;whiteSpace=wrap;html=1;" vertex="1" parent="1">
          <mxGeometry x="977" y="120" width="73" height="40" as="geometry" />
        </mxCell>
        <mxCell id="DNgMOrr3nvqOhSayVLv--70" value="Naziv" style="ellipse;whiteSpace=wrap;html=1;" vertex="1" parent="1">
          <mxGeometry x="980" y="210" width="73" height="40" as="geometry" />
        </mxCell>
        <mxCell id="DNgMOrr3nvqOhSayVLv--71" value="Id" style="ellipse;whiteSpace=wrap;html=1;" vertex="1" parent="1">
          <mxGeometry x="967" y="550" width="73" height="40" as="geometry" />
        </mxCell>
        <mxCell id="DNgMOrr3nvqOhSayVLv--72" value="Naziv" style="ellipse;whiteSpace=wrap;html=1;" vertex="1" parent="1">
          <mxGeometry x="967" y="610" width="73" height="40" as="geometry" />
        </mxCell>
        <mxCell id="DNgMOrr3nvqOhSayVLv--73" value="Id" style="ellipse;whiteSpace=wrap;html=1;" vertex="1" parent="1">
          <mxGeometry x="977" y="710" width="73" height="40" as="geometry" />
        </mxCell>
        <mxCell id="DNgMOrr3nvqOhSayVLv--74" value="Naziv" style="ellipse;whiteSpace=wrap;html=1;" vertex="1" parent="1">
          <mxGeometry x="977" y="780" width="73" height="40" as="geometry" />
        </mxCell>
        <mxCell id="DNgMOrr3nvqOhSayVLv--75" value="Id" style="ellipse;whiteSpace=wrap;html=1;" vertex="1" parent="1">
          <mxGeometry x="747" y="860" width="73" height="40" as="geometry" />
        </mxCell>
        <mxCell id="DNgMOrr3nvqOhSayVLv--76" value="Naziv" style="ellipse;whiteSpace=wrap;html=1;" vertex="1" parent="1">
          <mxGeometry x="747" y="940" width="73" height="40" as="geometry" />
        </mxCell>
        <mxCell id="DNgMOrr3nvqOhSayVLv--77" value="Id" style="ellipse;whiteSpace=wrap;html=1;" vertex="1" parent="1">
          <mxGeometry x="977" y="290" width="73" height="40" as="geometry" />
        </mxCell>
        <mxCell id="DNgMOrr3nvqOhSayVLv--78" value="Ime" style="ellipse;whiteSpace=wrap;html=1;" vertex="1" parent="1">
          <mxGeometry x="977" y="350" width="73" height="40" as="geometry" />
        </mxCell>
        <mxCell id="DNgMOrr3nvqOhSayVLv--79" value="Prezime" style="ellipse;whiteSpace=wrap;html=1;" vertex="1" parent="1">
          <mxGeometry x="977" y="410" width="73" height="40" as="geometry" />
        </mxCell>
        <mxCell id="DNgMOrr3nvqOhSayVLv--80" value="Detalji" style="ellipse;whiteSpace=wrap;html=1;" vertex="1" parent="1">
          <mxGeometry x="977" y="470" width="73" height="40" as="geometry" />
        </mxCell>
        <mxCell id="DNgMOrr3nvqOhSayVLv--81" value="" style="endArrow=classic;html=1;rounded=0;exitX=1;exitY=0.5;exitDx=0;exitDy=0;entryX=0;entryY=0.5;entryDx=0;entryDy=0;" edge="1" parent="1" source="DNgMOrr3nvqOhSayVLv--64" target="DNgMOrr3nvqOhSayVLv--69">
          <mxGeometry width="50" height="50" relative="1" as="geometry">
            <mxPoint x="630" y="380" as="sourcePoint" />
            <mxPoint x="680" y="330" as="targetPoint" />
          </mxGeometry>
        </mxCell>
        <mxCell id="DNgMOrr3nvqOhSayVLv--82" value="" style="endArrow=classic;html=1;rounded=0;exitX=1;exitY=0.5;exitDx=0;exitDy=0;entryX=0;entryY=0.5;entryDx=0;entryDy=0;" edge="1" parent="1" source="DNgMOrr3nvqOhSayVLv--64" target="DNgMOrr3nvqOhSayVLv--70">
          <mxGeometry width="50" height="50" relative="1" as="geometry">
            <mxPoint x="630" y="380" as="sourcePoint" />
            <mxPoint x="680" y="330" as="targetPoint" />
          </mxGeometry>
        </mxCell>
        <mxCell id="DNgMOrr3nvqOhSayVLv--83" value="" style="endArrow=classic;html=1;rounded=0;exitX=1;exitY=0.5;exitDx=0;exitDy=0;entryX=0;entryY=0.5;entryDx=0;entryDy=0;" edge="1" parent="1" source="DNgMOrr3nvqOhSayVLv--65" target="DNgMOrr3nvqOhSayVLv--78">
          <mxGeometry width="50" height="50" relative="1" as="geometry">
            <mxPoint x="630" y="380" as="sourcePoint" />
            <mxPoint x="680" y="330" as="targetPoint" />
          </mxGeometry>
        </mxCell>
        <mxCell id="DNgMOrr3nvqOhSayVLv--84" value="" style="endArrow=classic;html=1;rounded=0;exitX=1;exitY=0.5;exitDx=0;exitDy=0;entryX=0;entryY=0.5;entryDx=0;entryDy=0;" edge="1" parent="1" source="DNgMOrr3nvqOhSayVLv--65" target="DNgMOrr3nvqOhSayVLv--79">
          <mxGeometry width="50" height="50" relative="1" as="geometry">
            <mxPoint x="630" y="380" as="sourcePoint" />
            <mxPoint x="680" y="330" as="targetPoint" />
          </mxGeometry>
        </mxCell>
        <mxCell id="DNgMOrr3nvqOhSayVLv--85" value="" style="endArrow=classic;html=1;rounded=0;exitX=1;exitY=0.5;exitDx=0;exitDy=0;entryX=0;entryY=0.5;entryDx=0;entryDy=0;" edge="1" parent="1" source="DNgMOrr3nvqOhSayVLv--65" target="DNgMOrr3nvqOhSayVLv--77">
          <mxGeometry width="50" height="50" relative="1" as="geometry">
            <mxPoint x="630" y="380" as="sourcePoint" />
            <mxPoint x="680" y="330" as="targetPoint" />
          </mxGeometry>
        </mxCell>
        <mxCell id="DNgMOrr3nvqOhSayVLv--86" value="" style="endArrow=classic;html=1;rounded=0;entryX=0.005;entryY=0.295;entryDx=0;entryDy=0;entryPerimeter=0;" edge="1" parent="1" target="DNgMOrr3nvqOhSayVLv--80">
          <mxGeometry width="50" height="50" relative="1" as="geometry">
            <mxPoint x="940" y="390" as="sourcePoint" />
            <mxPoint x="680" y="330" as="targetPoint" />
          </mxGeometry>
        </mxCell>
        <mxCell id="DNgMOrr3nvqOhSayVLv--87" value="" style="endArrow=classic;html=1;rounded=0;exitX=1;exitY=0.5;exitDx=0;exitDy=0;entryX=0;entryY=0.5;entryDx=0;entryDy=0;" edge="1" parent="1" source="DNgMOrr3nvqOhSayVLv--66" target="DNgMOrr3nvqOhSayVLv--71">
          <mxGeometry width="50" height="50" relative="1" as="geometry">
            <mxPoint x="630" y="680" as="sourcePoint" />
            <mxPoint x="680" y="630" as="targetPoint" />
          </mxGeometry>
        </mxCell>
        <mxCell id="DNgMOrr3nvqOhSayVLv--88" value="" style="endArrow=classic;html=1;rounded=0;exitX=1;exitY=0.5;exitDx=0;exitDy=0;entryX=0;entryY=0.5;entryDx=0;entryDy=0;" edge="1" parent="1" source="DNgMOrr3nvqOhSayVLv--66" target="DNgMOrr3nvqOhSayVLv--72">
          <mxGeometry width="50" height="50" relative="1" as="geometry">
            <mxPoint x="630" y="680" as="sourcePoint" />
            <mxPoint x="680" y="630" as="targetPoint" />
          </mxGeometry>
        </mxCell>
        <mxCell id="DNgMOrr3nvqOhSayVLv--89" value="" style="endArrow=classic;html=1;rounded=0;exitX=1;exitY=0.5;exitDx=0;exitDy=0;entryX=0;entryY=0.5;entryDx=0;entryDy=0;" edge="1" parent="1" source="DNgMOrr3nvqOhSayVLv--67" target="DNgMOrr3nvqOhSayVLv--73">
          <mxGeometry width="50" height="50" relative="1" as="geometry">
            <mxPoint x="630" y="680" as="sourcePoint" />
            <mxPoint x="680" y="630" as="targetPoint" />
          </mxGeometry>
        </mxCell>
        <mxCell id="DNgMOrr3nvqOhSayVLv--90" value="" style="endArrow=classic;html=1;rounded=0;exitX=1;exitY=0.5;exitDx=0;exitDy=0;entryX=0;entryY=0.5;entryDx=0;entryDy=0;" edge="1" parent="1" source="DNgMOrr3nvqOhSayVLv--67" target="DNgMOrr3nvqOhSayVLv--74">
          <mxGeometry width="50" height="50" relative="1" as="geometry">
            <mxPoint x="630" y="680" as="sourcePoint" />
            <mxPoint x="680" y="630" as="targetPoint" />
          </mxGeometry>
        </mxCell>
        <mxCell id="DNgMOrr3nvqOhSayVLv--91" value="" style="endArrow=classic;html=1;rounded=0;exitX=1;exitY=0.5;exitDx=0;exitDy=0;entryX=0;entryY=0.5;entryDx=0;entryDy=0;" edge="1" parent="1" source="DNgMOrr3nvqOhSayVLv--68" target="DNgMOrr3nvqOhSayVLv--75">
          <mxGeometry width="50" height="50" relative="1" as="geometry">
            <mxPoint x="630" y="880" as="sourcePoint" />
            <mxPoint x="680" y="830" as="targetPoint" />
          </mxGeometry>
        </mxCell>
        <mxCell id="DNgMOrr3nvqOhSayVLv--92" value="" style="endArrow=classic;html=1;rounded=0;entryX=0;entryY=0.5;entryDx=0;entryDy=0;" edge="1" parent="1" target="DNgMOrr3nvqOhSayVLv--76">
          <mxGeometry width="50" height="50" relative="1" as="geometry">
            <mxPoint x="720" y="930" as="sourcePoint" />
            <mxPoint x="680" y="830" as="targetPoint" />
          </mxGeometry>
        </mxCell>
        <mxCell id="DNgMOrr3nvqOhSayVLv--93" value="Ima" style="rhombus;whiteSpace=wrap;html=1;" vertex="1" parent="1">
          <mxGeometry x="-210" y="180" width="67" height="50" as="geometry" />
        </mxCell>
        <mxCell id="DNgMOrr3nvqOhSayVLv--94" value="Ima" style="rhombus;whiteSpace=wrap;html=1;" vertex="1" parent="1">
          <mxGeometry x="-303.5" y="440" width="67" height="50" as="geometry" />
        </mxCell>
        <mxCell id="DNgMOrr3nvqOhSayVLv--95" value="Daje" style="rhombus;whiteSpace=wrap;html=1;" vertex="1" parent="1">
          <mxGeometry x="-140" y="405" width="67" height="50" as="geometry" />
        </mxCell>
        <mxCell id="DNgMOrr3nvqOhSayVLv--96" value="Piše" style="rhombus;whiteSpace=wrap;html=1;" vertex="1" parent="1">
          <mxGeometry x="-124" y="285" width="67" height="50" as="geometry" />
        </mxCell>
        <mxCell id="DNgMOrr3nvqOhSayVLv--97" value="" style="endArrow=none;html=1;rounded=0;entryX=0.5;entryY=1;entryDx=0;entryDy=0;exitX=0.5;exitY=0;exitDx=0;exitDy=0;" edge="1" parent="1" source="DNgMOrr3nvqOhSayVLv--94" target="DNgMOrr3nvqOhSayVLv--1">
          <mxGeometry width="50" height="50" relative="1" as="geometry">
            <mxPoint x="-90" y="480" as="sourcePoint" />
            <mxPoint x="-40" y="430" as="targetPoint" />
          </mxGeometry>
        </mxCell>
        <mxCell id="DNgMOrr3nvqOhSayVLv--98" value="" style="endArrow=none;html=1;rounded=0;entryX=0.5;entryY=1;entryDx=0;entryDy=0;exitX=0.5;exitY=0;exitDx=0;exitDy=0;" edge="1" parent="1" source="DNgMOrr3nvqOhSayVLv--17" target="DNgMOrr3nvqOhSayVLv--94">
          <mxGeometry width="50" height="50" relative="1" as="geometry">
            <mxPoint x="-90" y="480" as="sourcePoint" />
            <mxPoint x="-40" y="430" as="targetPoint" />
          </mxGeometry>
        </mxCell>
        <mxCell id="DNgMOrr3nvqOhSayVLv--99" value="" style="endArrow=none;html=1;rounded=0;entryX=0;entryY=1;entryDx=0;entryDy=0;exitX=0.5;exitY=0;exitDx=0;exitDy=0;" edge="1" parent="1" source="DNgMOrr3nvqOhSayVLv--1" target="DNgMOrr3nvqOhSayVLv--93">
          <mxGeometry width="50" height="50" relative="1" as="geometry">
            <mxPoint x="-90" y="380" as="sourcePoint" />
            <mxPoint x="-40" y="330" as="targetPoint" />
          </mxGeometry>
        </mxCell>
        <mxCell id="DNgMOrr3nvqOhSayVLv--100" value="" style="endArrow=none;html=1;rounded=0;entryX=0.5;entryY=1;entryDx=0;entryDy=0;exitX=1;exitY=0;exitDx=0;exitDy=0;" edge="1" parent="1" source="DNgMOrr3nvqOhSayVLv--93" target="DNgMOrr3nvqOhSayVLv--10">
          <mxGeometry width="50" height="50" relative="1" as="geometry">
            <mxPoint x="-90" y="380" as="sourcePoint" />
            <mxPoint x="-40" y="330" as="targetPoint" />
          </mxGeometry>
        </mxCell>
        <mxCell id="DNgMOrr3nvqOhSayVLv--101" value="" style="endArrow=none;html=1;rounded=0;entryX=1;entryY=1;entryDx=0;entryDy=0;exitX=0;exitY=0;exitDx=0;exitDy=0;" edge="1" parent="1" source="DNgMOrr3nvqOhSayVLv--95" target="DNgMOrr3nvqOhSayVLv--1">
          <mxGeometry width="50" height="50" relative="1" as="geometry">
            <mxPoint x="-90" y="480" as="sourcePoint" />
            <mxPoint x="-40" y="430" as="targetPoint" />
          </mxGeometry>
        </mxCell>
        <mxCell id="DNgMOrr3nvqOhSayVLv--102" value="" style="endArrow=none;html=1;rounded=0;entryX=0;entryY=0;entryDx=0;entryDy=0;exitX=1;exitY=1;exitDx=0;exitDy=0;" edge="1" parent="1" source="DNgMOrr3nvqOhSayVLv--95" target="DNgMOrr3nvqOhSayVLv--25">
          <mxGeometry width="50" height="50" relative="1" as="geometry">
            <mxPoint x="-90" y="480" as="sourcePoint" />
            <mxPoint x="-40" y="430" as="targetPoint" />
          </mxGeometry>
        </mxCell>
        <mxCell id="DNgMOrr3nvqOhSayVLv--104" value="" style="endArrow=none;html=1;rounded=0;entryX=0;entryY=0.5;entryDx=0;entryDy=0;exitX=1;exitY=0.5;exitDx=0;exitDy=0;" edge="1" parent="1" source="DNgMOrr3nvqOhSayVLv--1" target="DNgMOrr3nvqOhSayVLv--96">
          <mxGeometry width="50" height="50" relative="1" as="geometry">
            <mxPoint x="-90" y="380" as="sourcePoint" />
            <mxPoint x="-40" y="330" as="targetPoint" />
          </mxGeometry>
        </mxCell>
        <mxCell id="DNgMOrr3nvqOhSayVLv--105" value="" style="endArrow=none;html=1;rounded=0;entryX=0;entryY=0.5;entryDx=0;entryDy=0;exitX=1;exitY=0.5;exitDx=0;exitDy=0;" edge="1" parent="1" source="DNgMOrr3nvqOhSayVLv--96" target="DNgMOrr3nvqOhSayVLv--24">
          <mxGeometry width="50" height="50" relative="1" as="geometry">
            <mxPoint x="-90" y="380" as="sourcePoint" />
            <mxPoint x="-40" y="330" as="targetPoint" />
          </mxGeometry>
        </mxCell>
        <mxCell id="DNgMOrr3nvqOhSayVLv--106" value="Ima" style="rhombus;whiteSpace=wrap;html=1;" vertex="1" parent="1">
          <mxGeometry x="136" y="85" width="67" height="50" as="geometry" />
        </mxCell>
        <mxCell id="DNgMOrr3nvqOhSayVLv--107" value="" style="endArrow=none;html=1;rounded=0;entryX=0;entryY=0.5;entryDx=0;entryDy=0;exitX=1;exitY=0.5;exitDx=0;exitDy=0;" edge="1" parent="1" source="DNgMOrr3nvqOhSayVLv--10" target="DNgMOrr3nvqOhSayVLv--106">
          <mxGeometry width="50" height="50" relative="1" as="geometry">
            <mxPoint x="240" y="280" as="sourcePoint" />
            <mxPoint x="290" y="230" as="targetPoint" />
          </mxGeometry>
        </mxCell>
        <mxCell id="DNgMOrr3nvqOhSayVLv--109" value="" style="endArrow=none;html=1;rounded=0;entryX=1;entryY=0.5;entryDx=0;entryDy=0;" edge="1" parent="1" target="DNgMOrr3nvqOhSayVLv--106">
          <mxGeometry width="50" height="50" relative="1" as="geometry">
            <mxPoint x="300" y="250" as="sourcePoint" />
            <mxPoint x="290" y="230" as="targetPoint" />
          </mxGeometry>
        </mxCell>
        <mxCell id="DNgMOrr3nvqOhSayVLv--110" value="" style="endArrow=none;html=1;rounded=0;entryX=0;entryY=0.25;entryDx=0;entryDy=0;" edge="1" parent="1" target="DNgMOrr3nvqOhSayVLv--36">
          <mxGeometry width="50" height="50" relative="1" as="geometry">
            <mxPoint x="300" y="250" as="sourcePoint" />
            <mxPoint x="290" y="230" as="targetPoint" />
          </mxGeometry>
        </mxCell>
        <mxCell id="DNgMOrr3nvqOhSayVLv--111" value="Ima" style="rhombus;whiteSpace=wrap;html=1;" vertex="1" parent="1">
          <mxGeometry x="240" y="285" width="67" height="50" as="geometry" />
        </mxCell>
        <mxCell id="DNgMOrr3nvqOhSayVLv--112" value="Ima" style="rhombus;whiteSpace=wrap;html=1;" vertex="1" parent="1">
          <mxGeometry x="163" y="380" width="67" height="50" as="geometry" />
        </mxCell>
        <mxCell id="DNgMOrr3nvqOhSayVLv--113" value="" style="endArrow=none;html=1;rounded=0;entryX=0;entryY=0.5;entryDx=0;entryDy=0;exitX=1;exitY=0.5;exitDx=0;exitDy=0;" edge="1" parent="1" source="DNgMOrr3nvqOhSayVLv--111" target="DNgMOrr3nvqOhSayVLv--36">
          <mxGeometry width="50" height="50" relative="1" as="geometry">
            <mxPoint x="100" y="480" as="sourcePoint" />
            <mxPoint x="150" y="430" as="targetPoint" />
          </mxGeometry>
        </mxCell>
        <mxCell id="DNgMOrr3nvqOhSayVLv--114" value="" style="endArrow=none;html=1;rounded=0;entryX=0;entryY=0.5;entryDx=0;entryDy=0;exitX=1;exitY=0.5;exitDx=0;exitDy=0;" edge="1" parent="1" source="DNgMOrr3nvqOhSayVLv--24" target="DNgMOrr3nvqOhSayVLv--111">
          <mxGeometry width="50" height="50" relative="1" as="geometry">
            <mxPoint x="100" y="480" as="sourcePoint" />
            <mxPoint x="150" y="430" as="targetPoint" />
          </mxGeometry>
        </mxCell>
        <mxCell id="DNgMOrr3nvqOhSayVLv--115" value="" style="endArrow=none;html=1;rounded=0;entryX=0;entryY=0.75;entryDx=0;entryDy=0;exitX=1;exitY=0;exitDx=0;exitDy=0;" edge="1" parent="1" source="DNgMOrr3nvqOhSayVLv--112" target="DNgMOrr3nvqOhSayVLv--36">
          <mxGeometry width="50" height="50" relative="1" as="geometry">
            <mxPoint x="150" y="410" as="sourcePoint" />
            <mxPoint x="200" y="360" as="targetPoint" />
          </mxGeometry>
        </mxCell>
        <mxCell id="DNgMOrr3nvqOhSayVLv--116" value="" style="endArrow=none;html=1;rounded=0;entryX=0;entryY=1;entryDx=0;entryDy=0;" edge="1" parent="1" target="DNgMOrr3nvqOhSayVLv--112">
          <mxGeometry width="50" height="50" relative="1" as="geometry">
            <mxPoint x="120" y="520" as="sourcePoint" />
            <mxPoint x="200" y="360" as="targetPoint" />
          </mxGeometry>
        </mxCell>
        <mxCell id="DNgMOrr3nvqOhSayVLv--117" value="Ima" style="rhombus;whiteSpace=wrap;html=1;" vertex="1" parent="1">
          <mxGeometry x="243" y="670" width="67" height="50" as="geometry" />
        </mxCell>
        <mxCell id="DNgMOrr3nvqOhSayVLv--120" value="" style="endArrow=none;html=1;rounded=0;exitX=1;exitY=0.5;exitDx=0;exitDy=0;entryX=0;entryY=0.5;entryDx=0;entryDy=0;" edge="1" parent="1" source="DNgMOrr3nvqOhSayVLv--25" target="DNgMOrr3nvqOhSayVLv--117">
          <mxGeometry width="50" height="50" relative="1" as="geometry">
            <mxPoint x="350" y="490" as="sourcePoint" />
            <mxPoint x="400" y="440" as="targetPoint" />
          </mxGeometry>
        </mxCell>
        <mxCell id="DNgMOrr3nvqOhSayVLv--121" value="" style="endArrow=none;html=1;rounded=0;exitX=1;exitY=0.5;exitDx=0;exitDy=0;entryX=0;entryY=0.5;entryDx=0;entryDy=0;" edge="1" parent="1" source="DNgMOrr3nvqOhSayVLv--117" target="DNgMOrr3nvqOhSayVLv--37">
          <mxGeometry width="50" height="50" relative="1" as="geometry">
            <mxPoint x="350" y="490" as="sourcePoint" />
            <mxPoint x="400" y="440" as="targetPoint" />
          </mxGeometry>
        </mxCell>
        <mxCell id="DNgMOrr3nvqOhSayVLv--127" value="Ima" style="rhombus;whiteSpace=wrap;html=1;" vertex="1" parent="1">
          <mxGeometry x="680" y="200" width="67" height="50" as="geometry" />
        </mxCell>
        <mxCell id="DNgMOrr3nvqOhSayVLv--128" value="Ima" style="rhombus;whiteSpace=wrap;html=1;" vertex="1" parent="1">
          <mxGeometry x="626.5" y="610" width="67" height="50" as="geometry" />
        </mxCell>
        <mxCell id="DNgMOrr3nvqOhSayVLv--129" value="" style="endArrow=none;html=1;rounded=0;entryX=0;entryY=0;entryDx=0;entryDy=0;exitX=1;exitY=0.5;exitDx=0;exitDy=0;" edge="1" parent="1" source="DNgMOrr3nvqOhSayVLv--127" target="DNgMOrr3nvqOhSayVLv--64">
          <mxGeometry width="50" height="50" relative="1" as="geometry">
            <mxPoint x="770" y="490" as="sourcePoint" />
            <mxPoint x="820" y="440" as="targetPoint" />
          </mxGeometry>
        </mxCell>
        <mxCell id="DNgMOrr3nvqOhSayVLv--130" value="" style="endArrow=none;html=1;rounded=0;entryX=0;entryY=0.5;entryDx=0;entryDy=0;exitX=1;exitY=0.25;exitDx=0;exitDy=0;" edge="1" parent="1" source="DNgMOrr3nvqOhSayVLv--36" target="DNgMOrr3nvqOhSayVLv--127">
          <mxGeometry width="50" height="50" relative="1" as="geometry">
            <mxPoint x="770" y="490" as="sourcePoint" />
            <mxPoint x="820" y="440" as="targetPoint" />
          </mxGeometry>
        </mxCell>
        <mxCell id="DNgMOrr3nvqOhSayVLv--131" value="" style="endArrow=none;html=1;rounded=0;entryX=0;entryY=0.75;entryDx=0;entryDy=0;exitX=1;exitY=0.5;exitDx=0;exitDy=0;" edge="1" parent="1" source="DNgMOrr3nvqOhSayVLv--128" target="DNgMOrr3nvqOhSayVLv--64">
          <mxGeometry width="50" height="50" relative="1" as="geometry">
            <mxPoint x="770" y="490" as="sourcePoint" />
            <mxPoint x="820" y="440" as="targetPoint" />
          </mxGeometry>
        </mxCell>
        <mxCell id="DNgMOrr3nvqOhSayVLv--132" value="" style="endArrow=none;html=1;rounded=0;exitX=0;exitY=0.5;exitDx=0;exitDy=0;entryX=1;entryY=0.25;entryDx=0;entryDy=0;" edge="1" parent="1" source="DNgMOrr3nvqOhSayVLv--128" target="DNgMOrr3nvqOhSayVLv--37">
          <mxGeometry width="50" height="50" relative="1" as="geometry">
            <mxPoint x="770" y="490" as="sourcePoint" />
            <mxPoint x="820" y="440" as="targetPoint" />
          </mxGeometry>
        </mxCell>
        <mxCell id="DNgMOrr3nvqOhSayVLv--133" value="ima" style="rhombus;whiteSpace=wrap;html=1;" vertex="1" parent="1">
          <mxGeometry x="680" y="260" width="67" height="50" as="geometry" />
        </mxCell>
        <mxCell id="DNgMOrr3nvqOhSayVLv--134" value="Ima" style="rhombus;whiteSpace=wrap;html=1;" vertex="1" parent="1">
          <mxGeometry x="640" y="670" width="67" height="50" as="geometry" />
        </mxCell>
        <mxCell id="DNgMOrr3nvqOhSayVLv--135" value="" style="endArrow=none;html=1;rounded=0;entryX=0;entryY=0;entryDx=0;entryDy=0;exitX=1;exitY=0.5;exitDx=0;exitDy=0;" edge="1" parent="1" source="DNgMOrr3nvqOhSayVLv--133" target="DNgMOrr3nvqOhSayVLv--65">
          <mxGeometry width="50" height="50" relative="1" as="geometry">
            <mxPoint x="750" y="280" as="sourcePoint" />
            <mxPoint x="820" y="440" as="targetPoint" />
          </mxGeometry>
        </mxCell>
        <mxCell id="DNgMOrr3nvqOhSayVLv--136" value="" style="endArrow=none;html=1;rounded=0;entryX=0;entryY=0.5;entryDx=0;entryDy=0;exitX=1;exitY=0.5;exitDx=0;exitDy=0;" edge="1" parent="1" source="DNgMOrr3nvqOhSayVLv--36" target="DNgMOrr3nvqOhSayVLv--133">
          <mxGeometry width="50" height="50" relative="1" as="geometry">
            <mxPoint x="770" y="490" as="sourcePoint" />
            <mxPoint x="820" y="440" as="targetPoint" />
          </mxGeometry>
        </mxCell>
        <mxCell id="DNgMOrr3nvqOhSayVLv--137" value="" style="endArrow=none;html=1;rounded=0;entryX=0;entryY=0.25;entryDx=0;entryDy=0;exitX=1;exitY=0.5;exitDx=0;exitDy=0;" edge="1" parent="1" source="DNgMOrr3nvqOhSayVLv--134" target="DNgMOrr3nvqOhSayVLv--65">
          <mxGeometry width="50" height="50" relative="1" as="geometry">
            <mxPoint x="770" y="490" as="sourcePoint" />
            <mxPoint x="820" y="440" as="targetPoint" />
          </mxGeometry>
        </mxCell>
        <mxCell id="DNgMOrr3nvqOhSayVLv--138" value="" style="endArrow=none;html=1;rounded=0;entryX=0;entryY=0.5;entryDx=0;entryDy=0;exitX=1;exitY=0.5;exitDx=0;exitDy=0;" edge="1" parent="1" source="DNgMOrr3nvqOhSayVLv--37" target="DNgMOrr3nvqOhSayVLv--134">
          <mxGeometry width="50" height="50" relative="1" as="geometry">
            <mxPoint x="770" y="490" as="sourcePoint" />
            <mxPoint x="820" y="440" as="targetPoint" />
          </mxGeometry>
        </mxCell>
        <mxCell id="DNgMOrr3nvqOhSayVLv--139" value="Ima" style="rhombus;whiteSpace=wrap;html=1;" vertex="1" parent="1">
          <mxGeometry x="653" y="730" width="67" height="50" as="geometry" />
        </mxCell>
        <mxCell id="DNgMOrr3nvqOhSayVLv--144" value="Ima" style="rhombus;whiteSpace=wrap;html=1;" vertex="1" parent="1">
          <mxGeometry x="680" y="335" width="67" height="50" as="geometry" />
        </mxCell>
        <mxCell id="DNgMOrr3nvqOhSayVLv--145" value="" style="endArrow=none;html=1;rounded=0;entryX=0;entryY=0;entryDx=0;entryDy=0;exitX=1;exitY=0.5;exitDx=0;exitDy=0;" edge="1" parent="1" source="DNgMOrr3nvqOhSayVLv--144" target="DNgMOrr3nvqOhSayVLv--66">
          <mxGeometry width="50" height="50" relative="1" as="geometry">
            <mxPoint x="780" y="480" as="sourcePoint" />
            <mxPoint x="830" y="430" as="targetPoint" />
          </mxGeometry>
        </mxCell>
        <mxCell id="DNgMOrr3nvqOhSayVLv--147" value="" style="endArrow=none;html=1;rounded=0;entryX=0;entryY=0.5;entryDx=0;entryDy=0;exitX=1;exitY=0.75;exitDx=0;exitDy=0;" edge="1" parent="1" source="DNgMOrr3nvqOhSayVLv--36" target="DNgMOrr3nvqOhSayVLv--144">
          <mxGeometry width="50" height="50" relative="1" as="geometry">
            <mxPoint x="780" y="480" as="sourcePoint" />
            <mxPoint x="830" y="430" as="targetPoint" />
          </mxGeometry>
        </mxCell>
        <mxCell id="DNgMOrr3nvqOhSayVLv--148" value="" style="endArrow=none;html=1;rounded=0;entryX=0;entryY=0.5;entryDx=0;entryDy=0;exitX=1;exitY=0.5;exitDx=0;exitDy=0;" edge="1" parent="1" source="DNgMOrr3nvqOhSayVLv--139" target="DNgMOrr3nvqOhSayVLv--66">
          <mxGeometry width="50" height="50" relative="1" as="geometry">
            <mxPoint x="780" y="600" as="sourcePoint" />
            <mxPoint x="830" y="550" as="targetPoint" />
          </mxGeometry>
        </mxCell>
        <mxCell id="DNgMOrr3nvqOhSayVLv--149" value="" style="endArrow=none;html=1;rounded=0;entryX=0;entryY=0.5;entryDx=0;entryDy=0;exitX=1;exitY=0.75;exitDx=0;exitDy=0;" edge="1" parent="1" source="DNgMOrr3nvqOhSayVLv--37" target="DNgMOrr3nvqOhSayVLv--139">
          <mxGeometry width="50" height="50" relative="1" as="geometry">
            <mxPoint x="780" y="600" as="sourcePoint" />
            <mxPoint x="830" y="550" as="targetPoint" />
          </mxGeometry>
        </mxCell>
        <mxCell id="DNgMOrr3nvqOhSayVLv--151" value="Ima" style="rhombus;whiteSpace=wrap;html=1;" vertex="1" parent="1">
          <mxGeometry x="650" y="405" width="67" height="50" as="geometry" />
        </mxCell>
        <mxCell id="DNgMOrr3nvqOhSayVLv--152" value="" style="endArrow=none;html=1;rounded=0;exitX=0;exitY=0;exitDx=0;exitDy=0;entryX=1;entryY=0.5;entryDx=0;entryDy=0;" edge="1" parent="1" source="DNgMOrr3nvqOhSayVLv--67" target="DNgMOrr3nvqOhSayVLv--151">
          <mxGeometry width="50" height="50" relative="1" as="geometry">
            <mxPoint x="460" y="480" as="sourcePoint" />
            <mxPoint x="510" y="430" as="targetPoint" />
          </mxGeometry>
        </mxCell>
        <mxCell id="DNgMOrr3nvqOhSayVLv--153" value="" style="endArrow=none;html=1;rounded=0;entryX=0;entryY=0.5;entryDx=0;entryDy=0;exitX=1;exitY=1;exitDx=0;exitDy=0;" edge="1" parent="1" source="DNgMOrr3nvqOhSayVLv--36" target="DNgMOrr3nvqOhSayVLv--151">
          <mxGeometry width="50" height="50" relative="1" as="geometry">
            <mxPoint x="460" y="480" as="sourcePoint" />
            <mxPoint x="510" y="430" as="targetPoint" />
          </mxGeometry>
        </mxCell>
        <mxCell id="DNgMOrr3nvqOhSayVLv--154" value="Ima" style="rhombus;whiteSpace=wrap;html=1;" vertex="1" parent="1">
          <mxGeometry x="653" y="790" width="67" height="50" as="geometry" />
        </mxCell>
        <mxCell id="DNgMOrr3nvqOhSayVLv--157" value="" style="endArrow=none;html=1;rounded=0;entryX=0;entryY=0.25;entryDx=0;entryDy=0;exitX=1;exitY=0.5;exitDx=0;exitDy=0;" edge="1" parent="1" source="DNgMOrr3nvqOhSayVLv--154" target="DNgMOrr3nvqOhSayVLv--67">
          <mxGeometry width="50" height="50" relative="1" as="geometry">
            <mxPoint x="460" y="590" as="sourcePoint" />
            <mxPoint x="510" y="540" as="targetPoint" />
          </mxGeometry>
        </mxCell>
        <mxCell id="DNgMOrr3nvqOhSayVLv--158" value="" style="endArrow=none;html=1;rounded=0;entryX=0;entryY=0.5;entryDx=0;entryDy=0;exitX=1;exitY=1;exitDx=0;exitDy=0;" edge="1" parent="1" source="DNgMOrr3nvqOhSayVLv--37" target="DNgMOrr3nvqOhSayVLv--154">
          <mxGeometry width="50" height="50" relative="1" as="geometry">
            <mxPoint x="460" y="590" as="sourcePoint" />
            <mxPoint x="510" y="540" as="targetPoint" />
          </mxGeometry>
        </mxCell>
        <mxCell id="DNgMOrr3nvqOhSayVLv--160" value="Ima" style="rhombus;whiteSpace=wrap;html=1;" vertex="1" parent="1">
          <mxGeometry x="560" y="790" width="67" height="50" as="geometry" />
        </mxCell>
        <mxCell id="DNgMOrr3nvqOhSayVLv--161" value="" style="endArrow=none;html=1;rounded=0;exitX=0.5;exitY=0;exitDx=0;exitDy=0;entryX=0.75;entryY=1;entryDx=0;entryDy=0;" edge="1" parent="1" source="DNgMOrr3nvqOhSayVLv--160" target="DNgMOrr3nvqOhSayVLv--37">
          <mxGeometry width="50" height="50" relative="1" as="geometry">
            <mxPoint x="450" y="670" as="sourcePoint" />
            <mxPoint x="500" y="620" as="targetPoint" />
          </mxGeometry>
        </mxCell>
        <mxCell id="DNgMOrr3nvqOhSayVLv--162" value="" style="endArrow=none;html=1;rounded=0;exitX=0.5;exitY=1;exitDx=0;exitDy=0;entryX=0.183;entryY=-0.055;entryDx=0;entryDy=0;entryPerimeter=0;" edge="1" parent="1" source="DNgMOrr3nvqOhSayVLv--160" target="DNgMOrr3nvqOhSayVLv--68">
          <mxGeometry width="50" height="50" relative="1" as="geometry">
            <mxPoint x="450" y="670" as="sourcePoint" />
            <mxPoint x="500" y="620" as="targetPoint" />
          </mxGeometry>
        </mxCell>
        <mxCell id="DNgMOrr3nvqOhSayVLv--163" value="Ima" style="rhombus;whiteSpace=wrap;html=1;" vertex="1" parent="1">
          <mxGeometry x="550" y="440" width="67" height="50" as="geometry" />
        </mxCell>
        <mxCell id="DNgMOrr3nvqOhSayVLv--164" value="" style="endArrow=none;html=1;rounded=0;exitX=0.5;exitY=0;exitDx=0;exitDy=0;entryX=0.75;entryY=1;entryDx=0;entryDy=0;" edge="1" parent="1" source="DNgMOrr3nvqOhSayVLv--163" target="DNgMOrr3nvqOhSayVLv--36">
          <mxGeometry width="50" height="50" relative="1" as="geometry">
            <mxPoint x="390" y="620" as="sourcePoint" />
            <mxPoint x="440" y="570" as="targetPoint" />
          </mxGeometry>
        </mxCell>
        <mxCell id="DNgMOrr3nvqOhSayVLv--165" value="" style="endArrow=none;html=1;rounded=0;entryX=0.5;entryY=1;entryDx=0;entryDy=0;" edge="1" parent="1" target="DNgMOrr3nvqOhSayVLv--163">
          <mxGeometry width="50" height="50" relative="1" as="geometry">
            <mxPoint x="790" y="700" as="sourcePoint" />
            <mxPoint x="440" y="570" as="targetPoint" />
          </mxGeometry>
        </mxCell>
        <mxCell id="DNgMOrr3nvqOhSayVLv--166" value="" style="endArrow=none;html=1;rounded=0;exitX=0.841;exitY=-0.005;exitDx=0;exitDy=0;exitPerimeter=0;" edge="1" parent="1" source="DNgMOrr3nvqOhSayVLv--68">
          <mxGeometry width="50" height="50" relative="1" as="geometry">
            <mxPoint x="390" y="620" as="sourcePoint" />
            <mxPoint x="790" y="700" as="targetPoint" />
          </mxGeometry>
        </mxCell>
        <mxCell id="DNgMOrr3nvqOhSayVLv--167" value="1" style="text;html=1;align=center;verticalAlign=middle;resizable=0;points=[];autosize=1;strokeColor=none;fillColor=none;" vertex="1" parent="1">
          <mxGeometry x="-290" y="255" width="30" height="30" as="geometry" />
        </mxCell>
        <mxCell id="DNgMOrr3nvqOhSayVLv--168" value="1" style="text;html=1;align=center;verticalAlign=middle;resizable=0;points=[];autosize=1;strokeColor=none;fillColor=none;" vertex="1" parent="1">
          <mxGeometry x="-220" y="285" width="30" height="30" as="geometry" />
        </mxCell>
        <mxCell id="DNgMOrr3nvqOhSayVLv--169" value="1" style="text;html=1;align=center;verticalAlign=middle;resizable=0;points=[];autosize=1;strokeColor=none;fillColor=none;" vertex="1" parent="1">
          <mxGeometry x="399" y="250" width="30" height="30" as="geometry" />
        </mxCell>
        <mxCell id="DNgMOrr3nvqOhSayVLv--171" value="1" style="text;html=1;align=center;verticalAlign=middle;resizable=0;points=[];autosize=1;strokeColor=none;fillColor=none;" vertex="1" parent="1">
          <mxGeometry x="394" y="285" width="30" height="30" as="geometry" />
        </mxCell>
        <mxCell id="DNgMOrr3nvqOhSayVLv--172" value="1" style="text;html=1;align=center;verticalAlign=middle;resizable=0;points=[];autosize=1;strokeColor=none;fillColor=none;" vertex="1" parent="1">
          <mxGeometry x="400" y="650" width="30" height="30" as="geometry" />
        </mxCell>
        <mxCell id="DNgMOrr3nvqOhSayVLv--173" value="Ima" style="rhombus;whiteSpace=wrap;html=1;" vertex="1" parent="1">
          <mxGeometry x="260" y="570" width="67" height="50" as="geometry" />
        </mxCell>
        <mxCell id="DNgMOrr3nvqOhSayVLv--175" value="" style="endArrow=none;html=1;rounded=0;entryX=0;entryY=0.5;entryDx=0;entryDy=0;exitX=0.5;exitY=1;exitDx=0;exitDy=0;" edge="1" parent="1" source="DNgMOrr3nvqOhSayVLv--24" target="DNgMOrr3nvqOhSayVLv--173">
          <mxGeometry width="50" height="50" relative="1" as="geometry">
            <mxPoint x="-30" y="580" as="sourcePoint" />
            <mxPoint x="250" y="590" as="targetPoint" />
          </mxGeometry>
        </mxCell>
        <mxCell id="DNgMOrr3nvqOhSayVLv--176" value="" style="endArrow=none;html=1;rounded=0;entryX=1;entryY=0.5;entryDx=0;entryDy=0;exitX=0;exitY=0.25;exitDx=0;exitDy=0;" edge="1" parent="1" source="DNgMOrr3nvqOhSayVLv--37" target="DNgMOrr3nvqOhSayVLv--173">
          <mxGeometry width="50" height="50" relative="1" as="geometry">
            <mxPoint x="-30" y="580" as="sourcePoint" />
            <mxPoint x="20" y="530" as="targetPoint" />
          </mxGeometry>
        </mxCell>
        <mxCell id="DNgMOrr3nvqOhSayVLv--177" value="1" style="text;html=1;align=center;verticalAlign=middle;resizable=0;points=[];autosize=1;strokeColor=none;fillColor=none;" vertex="1" parent="1">
          <mxGeometry x="399" y="600" width="30" height="30" as="geometry" />
        </mxCell>
        <mxCell id="DNgMOrr3nvqOhSayVLv--179" value="&lt;font style=&quot;font-size: 20px;&quot;&gt;*&lt;/font&gt;" style="text;html=1;align=center;verticalAlign=middle;resizable=0;points=[];autosize=1;strokeColor=none;fillColor=none;" vertex="1" parent="1">
          <mxGeometry x="-124" y="135" width="30" height="40" as="geometry" />
        </mxCell>
        <mxCell id="DNgMOrr3nvqOhSayVLv--182" value="&lt;font style=&quot;font-size: 20px;&quot;&gt;*&lt;/font&gt;" style="text;html=1;align=center;verticalAlign=middle;resizable=0;points=[];autosize=1;strokeColor=none;fillColor=none;" vertex="1" parent="1">
          <mxGeometry x="-8.5" y="285" width="30" height="40" as="geometry" />
        </mxCell>
        <mxCell id="DNgMOrr3nvqOhSayVLv--184" value="&lt;font style=&quot;font-size: 20px;&quot;&gt;*&lt;/font&gt;" style="text;html=1;align=center;verticalAlign=middle;resizable=0;points=[];autosize=1;strokeColor=none;fillColor=none;" vertex="1" parent="1">
          <mxGeometry x="-277" y="340" width="30" height="40" as="geometry" />
        </mxCell>
        <mxCell id="DNgMOrr3nvqOhSayVLv--185" value="&lt;font style=&quot;font-size: 20px;&quot;&gt;*&lt;/font&gt;" style="text;html=1;align=center;verticalAlign=middle;resizable=0;points=[];autosize=1;strokeColor=none;fillColor=none;" vertex="1" parent="1">
          <mxGeometry x="-277" y="550" width="30" height="40" as="geometry" />
        </mxCell>
        <mxCell id="DNgMOrr3nvqOhSayVLv--186" value="&lt;font style=&quot;font-size: 20px;&quot;&gt;*&lt;/font&gt;" style="text;html=1;align=center;verticalAlign=middle;resizable=0;points=[];autosize=1;strokeColor=none;fillColor=none;" vertex="1" parent="1">
          <mxGeometry x="-220" y="320" width="30" height="40" as="geometry" />
        </mxCell>
        <mxCell id="DNgMOrr3nvqOhSayVLv--188" value="&lt;font style=&quot;font-size: 20px;&quot;&gt;*&lt;/font&gt;" style="text;html=1;align=center;verticalAlign=middle;resizable=0;points=[];autosize=1;strokeColor=none;fillColor=none;" vertex="1" parent="1">
          <mxGeometry x="-14" y="490" width="30" height="40" as="geometry" />
        </mxCell>
        <mxCell id="DNgMOrr3nvqOhSayVLv--189" value="&lt;font style=&quot;font-size: 20px;&quot;&gt;*&lt;/font&gt;" style="text;html=1;align=center;verticalAlign=middle;resizable=0;points=[];autosize=1;strokeColor=none;fillColor=none;" vertex="1" parent="1">
          <mxGeometry x="-30" y="85" width="30" height="40" as="geometry" />
        </mxCell>
        <mxCell id="DNgMOrr3nvqOhSayVLv--190" value="&lt;font style=&quot;font-size: 20px;&quot;&gt;*&lt;/font&gt;" style="text;html=1;align=center;verticalAlign=middle;resizable=0;points=[];autosize=1;strokeColor=none;fillColor=none;" vertex="1" parent="1">
          <mxGeometry x="400" y="230" width="30" height="40" as="geometry" />
        </mxCell>
        <mxCell id="DNgMOrr3nvqOhSayVLv--191" value="&lt;font style=&quot;font-size: 20px;&quot;&gt;*&lt;/font&gt;" style="text;html=1;align=center;verticalAlign=middle;resizable=0;points=[];autosize=1;strokeColor=none;fillColor=none;" vertex="1" parent="1">
          <mxGeometry x="133" y="285" width="30" height="40" as="geometry" />
        </mxCell>
        <mxCell id="DNgMOrr3nvqOhSayVLv--192" value="&lt;font style=&quot;font-size: 20px;&quot;&gt;*&lt;/font&gt;" style="text;html=1;align=center;verticalAlign=middle;resizable=0;points=[];autosize=1;strokeColor=none;fillColor=none;" vertex="1" parent="1">
          <mxGeometry x="50" y="330" width="30" height="40" as="geometry" />
        </mxCell>
        <mxCell id="DNgMOrr3nvqOhSayVLv--193" value="&lt;font style=&quot;font-size: 20px;&quot;&gt;*&lt;/font&gt;" style="text;html=1;align=center;verticalAlign=middle;resizable=0;points=[];autosize=1;strokeColor=none;fillColor=none;" vertex="1" parent="1">
          <mxGeometry x="120" y="530" width="30" height="40" as="geometry" />
        </mxCell>
        <mxCell id="DNgMOrr3nvqOhSayVLv--194" value="&lt;font style=&quot;font-size: 20px;&quot;&gt;*&lt;/font&gt;" style="text;html=1;align=center;verticalAlign=middle;resizable=0;points=[];autosize=1;strokeColor=none;fillColor=none;" vertex="1" parent="1">
          <mxGeometry x="100" y="490" width="30" height="40" as="geometry" />
        </mxCell>
        <mxCell id="DNgMOrr3nvqOhSayVLv--196" value="&lt;font style=&quot;font-size: 20px;&quot;&gt;*&lt;/font&gt;" style="text;html=1;align=center;verticalAlign=middle;resizable=0;points=[];autosize=1;strokeColor=none;fillColor=none;" vertex="1" parent="1">
          <mxGeometry x="790" y="140" width="30" height="40" as="geometry" />
        </mxCell>
        <mxCell id="DNgMOrr3nvqOhSayVLv--197" value="&lt;font style=&quot;font-size: 20px;&quot;&gt;*&lt;/font&gt;" style="text;html=1;align=center;verticalAlign=middle;resizable=0;points=[];autosize=1;strokeColor=none;fillColor=none;" vertex="1" parent="1">
          <mxGeometry x="530" y="230" width="30" height="40" as="geometry" />
        </mxCell>
        <mxCell id="DNgMOrr3nvqOhSayVLv--198" value="&lt;font style=&quot;font-size: 20px;&quot;&gt;*&lt;/font&gt;" style="text;html=1;align=center;verticalAlign=middle;resizable=0;points=[];autosize=1;strokeColor=none;fillColor=none;" vertex="1" parent="1">
          <mxGeometry x="540" y="615" width="30" height="40" as="geometry" />
        </mxCell>
        <mxCell id="DNgMOrr3nvqOhSayVLv--199" value="&lt;font style=&quot;font-size: 20px;&quot;&gt;*&lt;/font&gt;" style="text;html=1;align=center;verticalAlign=middle;resizable=0;points=[];autosize=1;strokeColor=none;fillColor=none;" vertex="1" parent="1">
          <mxGeometry x="797" y="190" width="30" height="40" as="geometry" />
        </mxCell>
        <mxCell id="DNgMOrr3nvqOhSayVLv--201" value="&lt;font style=&quot;font-size: 20px;&quot;&gt;*&lt;/font&gt;" style="text;html=1;align=center;verticalAlign=middle;resizable=0;points=[];autosize=1;strokeColor=none;fillColor=none;" vertex="1" parent="1">
          <mxGeometry x="800" y="330" width="30" height="40" as="geometry" />
        </mxCell>
        <mxCell id="DNgMOrr3nvqOhSayVLv--202" value="&lt;font style=&quot;font-size: 20px;&quot;&gt;*&lt;/font&gt;" style="text;html=1;align=center;verticalAlign=middle;resizable=0;points=[];autosize=1;strokeColor=none;fillColor=none;" vertex="1" parent="1">
          <mxGeometry x="530" y="250" width="30" height="40" as="geometry" />
        </mxCell>
        <mxCell id="DNgMOrr3nvqOhSayVLv--203" value="&lt;font style=&quot;font-size: 20px;&quot;&gt;*&lt;/font&gt;" style="text;html=1;align=center;verticalAlign=middle;resizable=0;points=[];autosize=1;strokeColor=none;fillColor=none;" vertex="1" parent="1">
          <mxGeometry x="540" y="630" width="30" height="40" as="geometry" />
        </mxCell>
        <mxCell id="DNgMOrr3nvqOhSayVLv--204" value="&lt;font style=&quot;font-size: 20px;&quot;&gt;*&lt;/font&gt;" style="text;html=1;align=center;verticalAlign=middle;resizable=0;points=[];autosize=1;strokeColor=none;fillColor=none;" vertex="1" parent="1">
          <mxGeometry x="800" y="360" width="30" height="40" as="geometry" />
        </mxCell>
        <mxCell id="DNgMOrr3nvqOhSayVLv--205" value="&lt;font style=&quot;font-size: 20px;&quot;&gt;*&lt;/font&gt;" style="text;html=1;align=center;verticalAlign=middle;resizable=0;points=[];autosize=1;strokeColor=none;fillColor=none;" vertex="1" parent="1">
          <mxGeometry x="820" y="544.5" width="30" height="40" as="geometry" />
        </mxCell>
        <mxCell id="DNgMOrr3nvqOhSayVLv--206" value="&lt;font style=&quot;font-size: 20px;&quot;&gt;*&lt;/font&gt;" style="text;html=1;align=center;verticalAlign=middle;resizable=0;points=[];autosize=1;strokeColor=none;fillColor=none;" vertex="1" parent="1">
          <mxGeometry x="800" y="585" width="30" height="40" as="geometry" />
        </mxCell>
        <mxCell id="DNgMOrr3nvqOhSayVLv--207" value="&lt;font style=&quot;font-size: 20px;&quot;&gt;*&lt;/font&gt;" style="text;html=1;align=center;verticalAlign=middle;resizable=0;points=[];autosize=1;strokeColor=none;fillColor=none;" vertex="1" parent="1">
          <mxGeometry x="540" y="645" width="30" height="40" as="geometry" />
        </mxCell>
        <mxCell id="DNgMOrr3nvqOhSayVLv--208" value="&lt;font style=&quot;font-size: 20px;&quot;&gt;*&lt;/font&gt;" style="text;html=1;align=center;verticalAlign=middle;resizable=0;points=[];autosize=1;strokeColor=none;fillColor=none;" vertex="1" parent="1">
          <mxGeometry x="530" y="265" width="30" height="40" as="geometry" />
        </mxCell>
        <mxCell id="DNgMOrr3nvqOhSayVLv--209" value="&lt;font style=&quot;font-size: 20px;&quot;&gt;*&lt;/font&gt;" style="text;html=1;align=center;verticalAlign=middle;resizable=0;points=[];autosize=1;strokeColor=none;fillColor=none;" vertex="1" parent="1">
          <mxGeometry x="520" y="290" width="30" height="40" as="geometry" />
        </mxCell>
        <mxCell id="DNgMOrr3nvqOhSayVLv--210" value="&lt;font style=&quot;font-size: 20px;&quot;&gt;*&lt;/font&gt;" style="text;html=1;align=center;verticalAlign=middle;resizable=0;points=[];autosize=1;strokeColor=none;fillColor=none;" vertex="1" parent="1">
          <mxGeometry x="820" y="700" width="30" height="40" as="geometry" />
        </mxCell>
        <mxCell id="DNgMOrr3nvqOhSayVLv--211" value="&lt;font style=&quot;font-size: 20px;&quot;&gt;*&lt;/font&gt;" style="text;html=1;align=center;verticalAlign=middle;resizable=0;points=[];autosize=1;strokeColor=none;fillColor=none;" vertex="1" parent="1">
          <mxGeometry x="800" y="730" width="30" height="40" as="geometry" />
        </mxCell>
        <mxCell id="DNgMOrr3nvqOhSayVLv--212" value="&lt;font style=&quot;font-size: 20px;&quot;&gt;*&lt;/font&gt;" style="text;html=1;align=center;verticalAlign=middle;resizable=0;points=[];autosize=1;strokeColor=none;fillColor=none;" vertex="1" parent="1">
          <mxGeometry x="530" y="670" width="30" height="40" as="geometry" />
        </mxCell>
        <mxCell id="DNgMOrr3nvqOhSayVLv--213" value="&lt;font style=&quot;font-size: 20px;&quot;&gt;*&lt;/font&gt;" style="text;html=1;align=center;verticalAlign=middle;resizable=0;points=[];autosize=1;strokeColor=none;fillColor=none;" vertex="1" parent="1">
          <mxGeometry x="500" y="670" width="30" height="40" as="geometry" />
        </mxCell>
        <mxCell id="DNgMOrr3nvqOhSayVLv--214" value="&lt;font style=&quot;font-size: 20px;&quot;&gt;*&lt;/font&gt;" style="text;html=1;align=center;verticalAlign=middle;resizable=0;points=[];autosize=1;strokeColor=none;fillColor=none;rotation=0;" vertex="1" parent="1">
          <mxGeometry x="603" y="870" width="30" height="40" as="geometry" />
        </mxCell>
        <mxCell id="DNgMOrr3nvqOhSayVLv--215" value="&lt;font style=&quot;font-size: 20px;&quot;&gt;*&lt;/font&gt;" style="text;html=1;align=center;verticalAlign=middle;resizable=0;points=[];autosize=1;strokeColor=none;fillColor=none;" vertex="1" parent="1">
          <mxGeometry x="680" y="870" width="30" height="40" as="geometry" />
        </mxCell>
        <mxCell id="DNgMOrr3nvqOhSayVLv--216" value="&lt;font style=&quot;font-size: 20px;&quot;&gt;*&lt;/font&gt;" style="text;html=1;align=center;verticalAlign=middle;resizable=0;points=[];autosize=1;strokeColor=none;fillColor=none;" vertex="1" parent="1">
          <mxGeometry x="490" y="290" width="30" height="40" as="geometry" />
        </mxCell>
      </root>
    </mxGraphModel>
  </diagram>
</mxfile>
